<?xml version="1.0" standalone="no"?>
<!DOCTYPE svg PUBLIC "-//W3C//DTD SVG 20010904//EN"
 "http://www.w3.org/TR/2001/REC-SVG-20010904/DTD/svg10.dtd">
<svg version="1.0" xmlns="http://www.w3.org/2000/svg"
 width="796.000000pt" height="622.000000pt" viewBox="0 0 796.000000 622.000000"
 preserveAspectRatio="xMidYMid meet">

<g transform="translate(0.000000,622.000000) scale(0.100000,-0.100000)"
fill="#000000" stroke="none">
<path d="M1420 3110 l0 -2560 2560 0 2560 0 0 2560 0 2560 -2560 0 -2560 0 0
-2560z m4160 -545 l0 -1245 -215 0 -215 0 0 1245 0 1245 215 0 215 0 0 -1245z
m-2218 604 c136 -29 292 -153 378 -301 l44 -77 31 57 c42 78 108 164 158 205
171 138 384 165 571 70 68 -34 184 -153 223 -228 40 -76 78 -191 99 -303 15
-74 18 -174 21 -679 l4 -593 -220 0 -221 0 0 518 c0 550 -4 609 -47 705 -45
100 -118 147 -225 147 -52 0 -72 -6 -116 -30 -61 -36 -129 -121 -164 -208 -23
-56 -23 -62 -28 -592 l-5 -535 -217 -3 -217 -2 -4 537 c-4 574 -4 580 -56 680
-53 104 -124 152 -226 153 -109 0 -193 -57 -250 -170 -54 -106 -55 -123 -55
-682 l0 -518 -220 0 -220 0 0 915 0 915 220 0 220 0 0 -147 0 -148 33 63 c102
198 287 293 489 251z"/>
</g>
</svg>
